<?xml version="1.0" encoding="UTF-8" standalone="no"?><svg xmlns="http://www.w3.org/2000/svg" xmlns:xlink="http://www.w3.org/1999/xlink" contentScriptType="application/ecmascript" contentStyleType="text/css" height="126px" preserveAspectRatio="none" style="width:402px;height:126px;" version="1.1" viewBox="0 0 402 126" width="402px" zoomAndPan="magnify"><defs><filter height="300%" id="fi748mkgpy7qu" width="300%" x="-1" y="-1"><feGaussianBlur result="blurOut" stdDeviation="2.0"/><feColorMatrix in="blurOut" result="blurOut2" type="matrix" values="0 0 0 0 0 0 0 0 0 0 0 0 0 0 0 0 0 0 .4 0"/><feOffset dx="4.0" dy="4.0" in="blurOut2" result="blurOut3"/><feBlend in="SourceGraphic" in2="blurOut3" mode="normal"/></filter></defs><g><!--entity Client--><rect fill="#FEFECE" filter="url(#fi748mkgpy7qu)" height="36.2969" style="stroke: #A80036; stroke-width: 1.5;" width="59" x="6" y="65"/><rect fill="#FEFECE" height="5" style="stroke: #A80036; stroke-width: 1.5;" width="10" x="1" y="70"/><rect fill="#FEFECE" height="5" style="stroke: #A80036; stroke-width: 1.5;" width="10" x="1" y="91.2969"/><text fill="#000000" font-family="sans-serif" font-size="14" lengthAdjust="spacingAndGlyphs" textLength="39" x="16" y="87.9951">Client</text><!--entity JSON--><ellipse cx="109.5" cy="83" fill="#FEFECE" filter="url(#fi748mkgpy7qu)" rx="8" ry="8" style="stroke: #A80036; stroke-width: 2.0;"/><text fill="#000000" font-family="sans-serif" font-size="14" lengthAdjust="spacingAndGlyphs" textLength="33" x="93" y="112.9951">JSON</text><!--entity Server--><rect fill="#FEFECE" filter="url(#fi748mkgpy7qu)" height="36.2969" style="stroke: #A80036; stroke-width: 1.5;" width="64" x="153.5" y="65"/><rect fill="#FEFECE" height="5" style="stroke: #A80036; stroke-width: 1.5;" width="10" x="148.5" y="70"/><rect fill="#FEFECE" height="5" style="stroke: #A80036; stroke-width: 1.5;" width="10" x="148.5" y="91.2969"/><text fill="#000000" font-family="sans-serif" font-size="14" lengthAdjust="spacingAndGlyphs" textLength="44" x="163.5" y="87.9951">Server</text><!--entity SQL--><ellipse cx="261.5" cy="83" fill="#FEFECE" filter="url(#fi748mkgpy7qu)" rx="8" ry="8" style="stroke: #A80036; stroke-width: 2.0;"/><text fill="#000000" font-family="sans-serif" font-size="14" lengthAdjust="spacingAndGlyphs" textLength="27" x="248" y="112.9951">SQL</text><!--entity Database--><rect fill="#FEFECE" filter="url(#fi748mkgpy7qu)" height="36.2969" style="stroke: #A80036; stroke-width: 1.5;" width="86" x="305.5" y="65"/><rect fill="#FEFECE" height="5" style="stroke: #A80036; stroke-width: 1.5;" width="10" x="300.5" y="70"/><rect fill="#FEFECE" height="5" style="stroke: #A80036; stroke-width: 1.5;" width="10" x="300.5" y="91.2969"/><text fill="#000000" font-family="sans-serif" font-size="14" lengthAdjust="spacingAndGlyphs" textLength="66" x="315.5" y="87.9951">Database</text><!--link Client to JSON--><path d="M70.45,83 C78.66,83 86.86,83 95.06,83 " fill="none" id="Client-JSON" style="stroke: #A80036; stroke-width: 1.0;"/><polygon fill="#A80036" points="100.17,83,91.17,79,95.17,83,91.17,87,100.17,83" style="stroke: #A80036; stroke-width: 1.0;"/><polygon fill="#A80036" points="65.27,83,74.27,87,70.27,83,74.27,79,65.27,83" style="stroke: #A80036; stroke-width: 1.0;"/><!--link JSON to Server--><path d="M118.7,83 C130.27,83 141.84,83 153.41,83 " fill="none" id="JSON-Server" style="stroke: #A80036; stroke-width: 1.0;"/><!--link Server to SQL--><path d="M217.56,83 C227.4,83 237.24,83 247.09,83 " fill="none" id="Server-&gt;SQL" style="stroke: #A80036; stroke-width: 1.0;"/><polygon fill="#A80036" points="252.23,83,243.23,79,247.23,83,243.23,87,252.23,83" style="stroke: #A80036; stroke-width: 1.0;"/><!--link SQL to Database--><path d="M270.68,83 C282.23,83 293.78,83 305.33,83 " fill="none" id="SQL-Database" style="stroke: #A80036; stroke-width: 1.0;"/><!--link Database to Server--><path d="M336.29,64.84 C326.18,51.58 310.52,34.62 292,27 C266.93,16.68 255.48,15.35 231,27 C216.39,33.95 204.94,48.14 197.19,60.5 " fill="none" id="Database-&gt;Server" style="stroke: #A80036; stroke-width: 1.0;"/><polygon fill="#A80036" points="194.49,64.95,202.5643,59.3103,197.073,60.6688,195.7144,55.1775,194.49,64.95" style="stroke: #A80036; stroke-width: 1.0;"/><text fill="#000000" font-family="sans-serif" font-size="13" lengthAdjust="spacingAndGlyphs" textLength="59" x="232" y="31.0669">response</text><!--
@startuml
[Client] <-> JSON
JSON - [Server]
[Server] -> SQL
SQL - [Database]
[Database] -> [Server]: response

@enduml

PlantUML version 1.2019.09(Mon Aug 26 18:19:51 CEST 2019)
(GPL source distribution)
Java Runtime: OpenJDK Runtime Environment
JVM: OpenJDK 64-Bit Server VM
Java Version: 1.8.0_232-b09
Operating System: Linux
OS Version: 4.19.91-1-MANJARO
Default Encoding: UTF-8
Language: en
Country: GB
--></g></svg>